<?xml version="1.0" encoding="utf-8"?>
<!-- Generator: Adobe Illustrator 24.3.0, SVG Export Plug-In . SVG Version: 6.00 Build 0)  -->
<svg version="1.1" id="Layer_1" xmlns="http://www.w3.org/2000/svg" xmlns:xlink="http://www.w3.org/1999/xlink" x="0px" y="0px"
	 viewBox="0 0 100 36" style="enable-background:new 0 0 100 36;" xml:space="preserve">
<style type="text/css">
	.st0{fill:#AF0602;}
	.st1{clip-path:url(#SVGID_4_);fill:#F9B23B;}
	.st2{clip-path:url(#SVGID_6_);fill:#F9B23B;}
	.st3{clip-path:url(#SVGID_8_);fill:#F9B23B;}
	.st4{clip-path:url(#SVGID_10_);fill:#F9B23B;}
	.st5{fill:#F9B23B;}
	.st6{clip-path:url(#SVGID_12_);}
	.st7{clip-path:url(#SVGID_16_);}
	.st8{opacity:0.7;clip-path:url(#SVGID_20_);}
	.st9{clip-path:url(#SVGID_22_);}
	.st10{clip-path:url(#SVGID_24_);fill:url(#SVGID_25_);}
	.st11{clip-path:url(#SVGID_27_);}
	.st12{clip-path:url(#SVGID_31_);}
	.st13{opacity:0.7;clip-path:url(#SVGID_35_);}
	.st14{clip-path:url(#SVGID_37_);}
	.st15{clip-path:url(#SVGID_39_);fill:url(#SVGID_40_);}
	.st16{clip-path:url(#SVGID_42_);fill:#F3F6F9;}
	.st17{clip-path:url(#SVGID_42_);fill:#878787;}
	.st18{clip-path:url(#SVGID_42_);fill:#323232;}
	.st19{clip-path:url(#SVGID_44_);}
	.st20{filter:url(#Adobe_OpacityMaskFilter);}
	.st21{clip-path:url(#SVGID_48_);fill:url(#SVGID_50_);}
	.st22{clip-path:url(#SVGID_48_);mask:url(#SVGID_49_);fill:url(#SVGID_51_);}
	.st23{opacity:0.8;clip-path:url(#SVGID_53_);}
	.st24{clip-path:url(#SVGID_55_);}
	.st25{clip-path:url(#SVGID_57_);fill:url(#SVGID_58_);}
	.st26{clip-path:url(#SVGID_60_);fill:#C1C1C1;}
	.st27{clip-path:url(#SVGID_62_);fill:#C1C1C1;}
	.st28{clip-path:url(#SVGID_64_);fill:#C1C1C1;}
	.st29{clip-path:url(#SVGID_66_);fill:#C1C1C1;}
	.st30{clip-path:url(#SVGID_68_);fill:#FFFFFF;}
	.st31{clip-path:url(#SVGID_68_);fill:#B3072F;}
	.st32{clip-path:url(#SVGID_70_);}
	.st33{filter:url(#Adobe_OpacityMaskFilter_1_);}
	.st34{clip-path:url(#SVGID_74_);fill:url(#SVGID_76_);}
	.st35{clip-path:url(#SVGID_74_);mask:url(#SVGID_75_);fill:url(#SVGID_77_);}
	.st36{opacity:0.8;clip-path:url(#SVGID_79_);}
	.st37{clip-path:url(#SVGID_81_);}
	.st38{clip-path:url(#SVGID_83_);fill:url(#SVGID_84_);}
	.st39{fill:#C1C1C1;}
	.st40{fill:#FFFFFF;}
	.st41{fill:#B3072F;}
</style>
<g>
	<polygon class="st40" points="26.41,15.2 29.79,15.2 34.01,27.9 38.27,15.2 41.64,15.2 44.69,33.4 41.34,33.4 39.39,21.91 
		35.53,33.4 32.47,33.4 28.64,21.91 26.64,33.4 23.26,33.4 	"/>
	<polygon class="st40" points="47.47,15.2 57.4,15.2 57.4,18.59 50.9,18.59 50.9,21.88 57.4,21.88 57.4,25.21 50.9,25.21 50.9,30 
		57.4,30 57.4,33.4 47.47,33.4 	"/>
	<path class="st40" d="M77.43,18.17l-2.44,2.41c-1.54-1.63-3.34-2.45-5.4-2.45c-1.79,0-3.29,0.59-4.5,1.78
		c-1.21,1.19-1.81,2.63-1.81,4.33c0,1.76,0.63,3.25,1.88,4.47c1.25,1.22,2.8,1.83,4.64,1.83c1.2,0,2.21-0.25,3.03-0.76
		c0.82-0.5,1.48-1.29,1.99-2.36h-5.27v-3.25h9.16l0.02,0.77c0,1.59-0.41,3.1-1.24,4.53c-0.83,1.43-1.89,2.51-3.21,3.27
		c-1.31,0.75-2.85,1.13-4.62,1.13c-1.89,0-3.57-0.41-5.05-1.23c-1.48-0.82-2.65-1.99-3.51-3.51c-0.86-1.52-1.29-3.15-1.29-4.91
		c0-2.41,0.8-4.5,2.39-6.29c1.89-2.12,4.34-3.18,7.37-3.18c1.58,0,3.06,0.29,4.44,0.88C75.18,16.12,76.32,16.97,77.43,18.17"/>
	<path class="st40" d="M87.47,15.2h3.51l7,18.2h-3.6l-1.43-3.75h-7.43l-1.48,3.75h-3.6L87.47,15.2z M89.25,20.03l-2.44,6.25h4.87
		L89.25,20.03z"/>
	<path class="st40" d="M6.84,3.07L5.73,4.05C5.34,3.51,4.94,3.24,4.54,3.24c-0.2,0-0.36,0.05-0.48,0.16
		C3.93,3.5,3.86,3.62,3.86,3.75c0,0.13,0.04,0.26,0.13,0.38c0.12,0.16,0.49,0.5,1.1,1.02c0.57,0.48,0.92,0.78,1.04,0.91
		c0.3,0.31,0.52,0.6,0.65,0.88c0.13,0.28,0.19,0.59,0.19,0.92c0,0.65-0.22,1.18-0.67,1.61c-0.45,0.42-1.03,0.63-1.75,0.63
		c-0.56,0-1.05-0.14-1.47-0.41C2.67,9.4,2.32,8.97,2.02,8.38l1.26-0.76c0.38,0.7,0.82,1.05,1.31,1.05c0.26,0,0.47-0.08,0.65-0.23
		c0.18-0.15,0.26-0.32,0.26-0.52c0-0.18-0.07-0.36-0.2-0.54C5.17,7.2,4.88,6.93,4.43,6.56c-0.86-0.7-1.42-1.24-1.67-1.62
		C2.51,4.56,2.39,4.18,2.39,3.8c0-0.55,0.21-1.02,0.63-1.41C3.43,1.99,3.95,1.8,4.56,1.8c0.4,0,0.77,0.09,1.13,0.27
		C6.04,2.26,6.43,2.59,6.84,3.07"/>
	<polygon class="st40" points="12.82,2 17.13,2 17.13,3.47 14.31,3.47 14.31,4.9 17.13,4.9 17.13,6.34 14.31,6.34 14.31,8.42 
		17.13,8.42 17.13,9.89 12.82,9.89 	"/>
	<path class="st40" d="M30.22,3.29l-1.06,1.05c-0.67-0.71-1.45-1.06-2.34-1.06c-0.78,0-1.43,0.26-1.95,0.77
		c-0.52,0.52-0.79,1.14-0.79,1.88c0,0.76,0.27,1.41,0.82,1.94c0.54,0.53,1.22,0.79,2.01,0.79c0.52,0,0.96-0.11,1.32-0.33
		c0.35-0.22,0.64-0.56,0.86-1.02H26.8V5.89h3.97l0.01,0.33c0,0.69-0.18,1.34-0.54,1.96c-0.35,0.62-0.82,1.09-1.39,1.42
		c-0.57,0.33-1.24,0.49-2.01,0.49c-0.82,0-1.55-0.18-2.19-0.54c-0.65-0.36-1.15-0.86-1.53-1.52c-0.37-0.66-0.56-1.37-0.56-2.13
		c0-1.05,0.34-1.96,1.04-2.73c0.82-0.92,1.89-1.38,3.2-1.38c0.69,0,1.33,0.13,1.93,0.38C29.24,2.39,29.74,2.76,30.22,3.29"/>
	<path class="st40" d="M36.51,2h1.51V7.1c0,0.44,0.03,0.75,0.11,0.93s0.2,0.33,0.38,0.44c0.18,0.11,0.39,0.16,0.64,0.16
		c0.26,0,0.49-0.06,0.68-0.18c0.19-0.12,0.32-0.28,0.4-0.46c0.07-0.19,0.11-0.55,0.11-1.08V2h1.51V6.7c0,0.8-0.05,1.35-0.14,1.65
		c-0.09,0.31-0.26,0.6-0.51,0.89c-0.25,0.29-0.54,0.5-0.87,0.64c-0.33,0.14-0.71,0.21-1.15,0.21c-0.57,0-1.07-0.13-1.49-0.39
		c-0.42-0.26-0.73-0.59-0.91-0.99c-0.18-0.4-0.27-1.06-0.27-2.01V2z"/>
	<path class="st40" d="M48.1,2h1.59c0.88,0,1.49,0.08,1.87,0.23c0.37,0.16,0.67,0.42,0.89,0.78c0.23,0.36,0.34,0.79,0.34,1.28
		c0,0.52-0.12,0.95-0.37,1.3c-0.25,0.35-0.62,0.61-1.12,0.79l1.87,3.51h-1.64l-1.77-3.34H49.6V9.9h-1.5V2z M49.6,5.08h0.47
		c0.48,0,0.8-0.06,0.99-0.19c0.18-0.12,0.27-0.33,0.27-0.62c0-0.17-0.04-0.32-0.13-0.45c-0.09-0.13-0.21-0.22-0.36-0.27
		c-0.15-0.06-0.42-0.08-0.82-0.08H49.6V5.08z"/>
	<rect x="58.66" y="2" class="st40" width="1.49" height="7.9"/>
	<path class="st40" d="M66.25,2h1.78c1.15,0,2,0.14,2.56,0.43c0.56,0.28,1.02,0.75,1.38,1.39c0.36,0.64,0.54,1.39,0.54,2.24
		c0,0.61-0.1,1.17-0.3,1.68C72,8.24,71.73,8.67,71.37,9c-0.36,0.34-0.74,0.57-1.16,0.7C69.8,9.83,69.08,9.9,68.06,9.9h-1.81V2z
		 M67.74,3.45v4.98h0.7c0.69,0,1.18-0.08,1.5-0.24c0.31-0.16,0.56-0.42,0.76-0.8c0.2-0.37,0.29-0.83,0.29-1.38
		c0-0.84-0.23-1.49-0.7-1.95c-0.42-0.41-1.1-0.62-2.03-0.62H67.74z"/>
	<path class="st40" d="M80.75,2h1.53l3.04,7.9h-1.56l-0.62-1.63h-3.22L79.27,9.9h-1.56L80.75,2z M81.52,4.09L80.46,6.8h2.11
		L81.52,4.09z"/>
	<path class="st40" d="M90.88,2h1.78c1.15,0,2,0.14,2.56,0.43c0.56,0.28,1.02,0.75,1.38,1.39c0.36,0.64,0.54,1.39,0.54,2.24
		c0,0.61-0.1,1.17-0.3,1.68C96.63,8.24,96.35,8.67,96,9c-0.35,0.34-0.74,0.57-1.16,0.7c-0.41,0.13-1.13,0.19-2.16,0.19h-1.81V2z
		 M92.37,3.45v4.98h0.7c0.69,0,1.19-0.08,1.49-0.24c0.31-0.16,0.57-0.42,0.76-0.8c0.2-0.37,0.29-0.83,0.29-1.38
		c0-0.84-0.24-1.49-0.7-1.95c-0.42-0.41-1.1-0.62-2.03-0.62H92.37z"/>
	<path class="st41" d="M12.14,14.41c-5.59,0-10.12,4.53-10.12,10.12c0,4.56,3.01,8.41,7.15,9.68l1.87-6.24
		c-2.1-0.5-3.67-2.38-3.67-4.64c0-2.63,2.13-4.77,4.77-4.77c2.63,0,4.77,2.13,4.77,4.77c0,2.25-1.57,4.14-3.67,4.64l1.87,6.24
		c4.14-1.27,7.15-5.12,7.15-9.68C22.26,18.94,17.73,14.41,12.14,14.41"/>
	<path class="st41" d="M15.57,23.32c0,1.9-1.53,3.43-3.43,3.43c-1.89,0-3.43-1.53-3.43-3.43c0-1.89,1.53-3.43,3.43-3.43
		C14.03,19.9,15.57,21.43,15.57,23.32"/>
</g>
</svg>
