<?xml version="1.0" encoding="utf-8"?>
<!-- Generator: Adobe Illustrator 24.3.0, SVG Export Plug-In . SVG Version: 6.00 Build 0)  -->
<svg version="1.1" id="Layer_1" xmlns="http://www.w3.org/2000/svg" xmlns:xlink="http://www.w3.org/1999/xlink" x="0px" y="0px"
	 viewBox="0 0 80 94" style="enable-background:new 0 0 80 94;" xml:space="preserve" fill="#F8B200">
<g>
	<path class="st5" d="M1.43,44.47c-0.11,1.07-0.17,2.15-0.17,3.24v45.32H13.9V69.89c2.24,1.84,4.77,3.34,7.5,4.43
		c0.87,0.35,1.76,0.65,2.66,0.91c2.52,0.73,5.19,1.12,7.94,1.12c12.04,0,22.34-7.42,26.57-17.94l-8.77,0.01l-3.2,0
		c-3.3,4.48-8.61,7.39-14.6,7.39c-2.84,0-5.53-0.65-7.93-1.82c-0.94-0.46-1.82-0.99-2.66-1.6c-1.53-1.09-2.87-2.42-3.99-3.93
		c-0.67-0.91-1.26-1.87-1.75-2.9c-1.14-2.38-1.79-5.05-1.79-7.86c0-6.07,2.98-11.44,7.57-14.73V29.8l0.01-8.74l0-2.24
		C10.65,22.76,2.66,32.61,1.43,44.47"/>
	<path class="st5" d="M24.16,47.71c0,4.23,3.36,7.69,7.57,7.83h0.55c4.2-0.14,7.56-3.6,7.56-7.83c0-4.34-3.51-7.85-7.84-7.85
		C27.68,39.86,24.16,43.37,24.16,47.71"/>
	<path class="st5" d="M24.14,20.15l-0.01,8.32c2.42-1,5.09-1.55,7.87-1.55c11.47,0,20.77,9.31,20.77,20.78
		c0,2.76-0.53,5.39-1.52,7.8l8.32-0.01c0.7-2.48,1.07-5.09,1.07-7.79c0-15.83-12.82-28.65-28.64-28.65
		C29.28,19.06,26.64,19.44,24.14,20.15"/>
	<path class="st5" d="M24.17,1.62l-0.01,8.31c2.53-0.52,5.16-0.8,7.85-0.8c21.3,0,38.57,17.26,38.57,38.58
		c0,2.66-0.27,5.26-0.78,7.78l8.3-0.01c0.43-2.53,0.64-5.12,0.64-7.76c0-25.82-20.92-46.74-46.73-46.74
		C29.34,0.97,26.72,1.19,24.17,1.62"/>
</g>
</svg>
