<?xml version="1.0" encoding="UTF-8"?>
<svg xmlns="http://www.w3.org/2000/svg" xmlns:xlink="http://www.w3.org/1999/xlink" width="336pt" height="384pt" viewBox="0 0 336 384" version="1.1">
<g id="surface1">
<path style=" stroke:none;fill-rule:nonzero;fill:rgb(29.803922%,87.843137%,21.960784%);fill-opacity:0.5;" d="M 18 161.25 L 232.800781 161.25 L 264 192 L 232.808594 222.75 L 18 222.75 C 8.023438 222.75 0 214.5 0 204.277344 L 0 179.664062 C -0.0664062 174.832031 1.796875 170.171875 5.175781 166.714844 C 8.550781 163.261719 13.167969 161.292969 18 161.25 Z M 18 161.25 "/>
<path style=" stroke:none;fill-rule:nonzero;fill:rgb(29.803922%,87.843137%,21.960784%);fill-opacity:1;" d="M 184.734375 28.890625 C 184.914062 29.0625 185.09375 29.242188 185.265625 29.421875 L 330.75 178.921875 C 337.789062 186.191406 337.789062 197.734375 330.75 205.003906 L 185.25 354.578125 C 182.03125 357.945312 177.601562 359.894531 172.941406 359.996094 C 168.285156 360.09375 163.777344 358.332031 160.417969 355.101562 C 160.238281 354.9375 160.066406 354.757812 159.890625 354.578125 L 143.296875 337.5 C 136.195312 330.089844 136.328125 318.363281 143.59375 311.113281 L 264.140625 192 L 143.59375 72.898438 C 136.25 65.6875 136.117188 53.894531 143.296875 46.515625 L 159.90625 29.429688 C 163.125 26.0625 167.550781 24.109375 172.207031 24.007812 C 176.867188 23.90625 181.371094 25.664062 184.734375 28.890625 Z M 184.734375 28.890625 "/>
</g>
</svg>
