<?xml version="1.0" encoding="UTF-8"?>
<svg xmlns="http://www.w3.org/2000/svg" xmlns:xlink="http://www.w3.org/1999/xlink" width="336pt" height="384pt" viewBox="0 0 336 384" version="1.1">
<g id="surface1">
<path style=" stroke:none;fill-rule:nonzero;fill:rgb(85.098039%,10.980392%,4.313725%);fill-opacity:0.5;" d="M 318 222.75 L 103.199219 222.75 L 72 192 L 103.191406 161.25 L 318 161.25 C 327.976562 161.25 336 169.5 336 179.722656 L 336 204.335938 C 336.066406 209.167969 334.203125 213.828125 330.824219 217.285156 C 327.449219 220.738281 322.832031 222.707031 318 222.75 Z M 318 222.75 "/>
<path style=" stroke:none;fill-rule:nonzero;fill:rgb(85.098039%,10.980392%,4.313725%);fill-opacity:1;" d="M 151.265625 355.109375 L 150.734375 354.578125 L 5.25 205.078125 C -1.789062 197.808594 -1.789062 186.265625 5.25 178.996094 L 150.75 29.421875 C 153.96875 26.054688 158.398438 24.105469 163.058594 24.003906 C 167.714844 23.90625 172.222656 25.667969 175.582031 28.898438 C 175.761719 29.0625 175.933594 29.242188 176.109375 29.421875 L 192.703125 46.5 C 199.804688 53.910156 199.671875 65.636719 192.40625 72.886719 L 71.859375 192 L 192.40625 311.101562 C 199.75 318.3125 199.882812 330.105469 192.703125 337.484375 L 176.09375 354.570312 C 172.875 357.9375 168.449219 359.890625 163.792969 359.992188 C 159.132812 360.09375 154.628906 358.335938 151.265625 355.109375 Z M 151.265625 355.109375 "/>
</g>
</svg>
