<svg width="24" height="24" xmlns="http://www.w3.org/2000/svg">

 <g>
  <title>Layer 1</title>
  <path id="svg_1" fill="none" d="m0,0l24,0l0,24l-24,0l0,-24z"/>
  <path fill="#F8B200" id="svg_2" d="m6.76824,15.30901l7,0l0,2l-7,0l0,-2zm0,-4l10,0l0,2l-10,0l0,-2zm0,-4l10,0l0,2l-10,0l0,-2zm12,-4l-4.18,0c-0.42,-1.16 -1.52,-2 -2.82,-2c-1.3,0 -2.4,0.84 -2.82,2l-4.18,0c-0.14,0 -0.27,0.01 -0.4,0.04c-0.39,0.08 -0.74,0.28 -1.01,0.55c-0.18,0.18 -0.33,0.4 -0.43,0.64c-0.1,0.23 -0.16,0.49 -0.16,0.77l0,14c0,0.27 0.06,0.54 0.16,0.78s0.25,0.45 0.43,0.64c0.27,0.27 0.62,0.47 1.01,0.55c0.13,0.02 0.26,0.03 0.4,0.03l14,0c1.1,0 2,-0.9 2,-2l0,-14c0,-1.1 -0.9,-2 -2,-2zm-7,-0.25c0.41,0 0.75,0.34 0.75,0.75s-0.34,0.75 -0.75,0.75s-0.75,-0.34 -0.75,-0.75s0.34,-0.75 0.75,-0.75zm7,16.25l-14,0l0,-14l14,0l0,14z"/>
 </g>
</svg>