<svg width="24" height="24" xmlns="http://www.w3.org/2000/svg">
 <g>
  <title>Layer 1</title>
  <path d="m0,0l24,0l0,24l-24,0l0,-24z" fill="none" id="svg_1"/>
  <path d="m22,3l-20,0c-1.1,0 -2,0.9 -2,2l0,14c0,1.1 0.9,2 2,2l20,0c1.1,0 1.99,-0.9 1.99,-2l0.01,-14c0,-1.1 -0.9,-2 -2,-2zm0,16l-20,0l0,-14l20,0l0,14zm-1,-13l-7,0l0,5l7,0l0,-5zm-1,2l-2.5,1.75l-2.5,-1.75l0,-1l2.5,1.75l2.5,-1.75l0,1zm-11,4c1.65,0 3,-1.35 3,-3s-1.35,-3 -3,-3s-3,1.35 -3,3s1.35,3 3,3zm0,-4c0.55,0 1,0.45 1,1s-0.45,1 -1,1s-1,-0.45 -1,-1s0.45,-1 1,-1zm6,8.59c0,-2.5 -3.97,-3.58 -6,-3.58s-6,1.08 -6,3.58l0,1.41l12,0l0,-1.41zm-9.52,-0.59c0.74,-0.5 2.22,-1 3.52,-1s2.77,0.49 3.52,1l-7.04,0z" id="svg_2" fill="#F8B200"/>
 </g>

</svg>