<svg width="23.999999999999996" height="23.999999999999996" xmlns="http://www.w3.org/2000/svg">
 <g>
  <title>Layer 1</title>
  <path d="m0,0l24,0l0,24l-24,0l0,-24z" fill="none" id="svg_1"/>
  <path d="m12,2c-5.52,0 -10,4.48 -10,10s4.48,10 10,10s10,-4.48 10,-10s-4.48,-10 -10,-10zm-8,10c0,-0.61 0.08,-1.21 0.21,-1.78l4.78,4.78l0,1c0,1.1 0.9,2 2,2l0,1.93c-3.93,-0.5 -6.99,-3.86 -6.99,-7.93zm13.89,5.4c-0.26,-0.81 -1,-1.4 -1.9,-1.4l-1,0l0,-3c0,-0.55 -0.45,-1 -1,-1l-6,0l0,-2l2,0c0.55,0 1,-0.45 1,-1l0,-2l2,0c1.1,0 2,-0.9 2,-2l0,-0.41c2.93,1.18 5.01,4.06 5.01,7.41c0,2.08 -0.81,3.98 -2.11,5.4z" id="svg_2" fill="#F8B200"/>
 </g>

</svg>